#tb 0: 1001/30000
0,          0,          0,        1,    66528, 5f69230bfd8bb485bd85552b18339fc0
0,          1,          1,        1,    66528, f5c365774fc1d0bffd5025ce2e931aaf
0,          2,          2,        1,    66528, 2898234103c3624e6470ae82c916e000
0,          3,          3,        1,    66528, d82a7fa705180b68a8ee8cb7de0cdd2d
0,          4,          4,        1,    66528, 144a162d418deae62883a2cc4c341b4c
0,          5,          5,        1,    66528, b3419a48385e42ca15717289ff2daa1c
0,          6,          6,        1,    66528, d6306b5737f88f989bf2e6a1084a94fe
0,          7,          7,        1,    66528, 5669761d7417b52b3cf81d44a13e3fb7
0,          8,          8,        1,    66528, 3f730b8658d7a6657d1af38c75357512
0,          9,          9,        1,    66528, 27df68d515148f732325bf821037d59f
